<?xml version="1.0" encoding="UTF-8" standalone="no"?>
<svg width="250px" height="508px" viewBox="0 0 250 508" version="1.1" xmlns="http://www.w3.org/2000/svg" xmlns:xlink="http://www.w3.org/1999/xlink" xmlns:sketch="http://www.bohemiancoding.com/sketch/ns">
    <!-- Generator: Sketch 3.3.2 (12043) - http://www.bohemiancoding.com/sketch -->
    <title>step01</title>
    <desc>Created with Sketch.</desc>
    <defs></defs>
    <g id="Walkthrough" stroke="none" stroke-width="1" fill="none" fill-rule="evenodd" sketch:type="MSPage">
        <g id="Step-1" sketch:type="MSArtboardGroup" transform="translate(-83.000000, -115.000000)">
            <g id="step01" sketch:type="MSLayerGroup" transform="translate(83.000000, 115.000000)">
                <path d="M248,146 L249.247631,146 C249.663153,146 250,145.671488 250,145.240936 L250,108.759064 C250,108.339845 249.658962,108 249.247631,108 L248,108 L248,37.5091337 C248,16.7934112 231.212411,0 210.504092,0 L39.4959076,0 C18.7874897,0 2,16.7934964 2,37.5091337 L2,64 L0.752369404,64 C0.336847256,64 0,64.3304508 0,64.7596016 L0,83.2403984 C0,83.6599148 0.34103775,84 0.752369404,84 L2,84 L2,108 L0.752369404,108 C0.336847256,108 0,108.328512 0,108.759064 L0,145.240936 C0,145.660155 0.34103775,146 0.752369404,146 L2,146 L2,154 L0.752369404,154 C0.336847256,154 0,154.328512 0,154.759064 L0,191.240936 C0,191.660155 0.34103775,192 0.752369404,192 L2,192 L2,470.490866 C2,491.206589 18.7875894,508 39.4959076,508 L210.504092,508 C231.21251,508 248,491.206504 248,470.490866 L248,146 L248,146 Z M16,62 L16,446 L232,446 L232,62 L16,62 Z M126,492 C135.49341,492 144,483.49341 144,474 C144,462.50659 135.49341,454 126,454 C114.50659,454 106,462.50659 106,474 C106,483.49341 114.50659,492 126,492 Z M126,490 C134.388841,490 142,482.388841 142,474 C142,463.611159 134.388841,456 126,456 C115.611159,456 108,463.611159 108,474 C108,482.388841 115.611159,490 126,490 Z M86,36 C88.209139,36 90,34.209139 90,32 C90,29.790861 88.209139,28 86,28 C83.790861,28 82,29.790861 82,32 C82,34.209139 83.790861,36 86,36 Z M126,20 C126.656854,20 128,18.6568542 128,18 C128,15.3431458 126.656854,14 126,14 C123.343146,14 122,15.3431458 122,18 C122,18.6568542 123.343146,20 126,20 Z M107.997292,30 C106.894218,30 106,30.8877296 106,32 C106,33.1045695 106.89154,34 107.997292,34 L144.002708,34 C145.105782,34 146,33.1122704 146,32 C146,30.8954305 145.10846,30 144.002708,30 L107.997292,30 Z" id="Apple-iPhone-6" stroke="#FFFFFF" stroke-width="2" sketch:type="MSShapeGroup"></path>
                <path d="M42.3377483,395 L53.6622517,395 C57.5665,395 59.4734667,395 61.4635762,395.754967 C63.76905,396.465217 65.5347833,398.23095 66.2450331,400.536424 C67,402.526217 67,404.433817 67,408.337748 L67,419.662252 C67,423.5665 67,425.473467 66.2450331,427.463576 C65.5347833,429.76905 63.76905,431.534783 61.4635762,432.245033 C59.4734667,433 57.5665,433 53.6622517,433 L42.3377483,433 C38.4335,433 36.5262167,433 34.5364238,432.245033 C32.23095,431.534783 30.4652167,429.76905 29.7549669,427.463576 C29,425.473467 29,423.5665 29,419.662252 L29,408.337748 C29,404.433817 29,402.526217 29.7549669,400.536424 C30.4652167,398.23095 32.23095,396.465217 34.5364238,395.754967 C36.5262167,395 38.4335,395 42.3377483,395 L42.3377483,395" id="Path-2" stroke="#FFFFFF" stroke-width="2" sketch:type="MSShapeGroup"></path>
                <path d="M42.3377483,83 L53.6622517,83 C57.5665,83 59.4734667,83 61.4635762,83.7549669 C63.76905,84.4652167 65.5347833,86.23095 66.2450331,88.5364238 C67,90.5262167 67,92.4338167 67,96.3377483 L67,107.662252 C67,111.5665 67,113.473467 66.2450331,115.463576 C65.5347833,117.76905 63.76905,119.534783 61.4635762,120.245033 C59.4734667,121 57.5665,121 53.6622517,121 L42.3377483,121 C38.4335,121 36.5262167,121 34.5364238,120.245033 C32.23095,119.534783 30.4652167,117.76905 29.7549669,115.463576 C29,113.473467 29,111.5665 29,107.662252 L29,96.3377483 C29,92.4338167 29,90.5262167 29.7549669,88.5364238 C30.4652167,86.23095 32.23095,84.4652167 34.5364238,83.7549669 C36.5262167,83 38.4335,83 42.3377483,83 L42.3377483,83" id="Path-2" stroke="#FFFFFF" stroke-width="2" sketch:type="MSShapeGroup"></path>
                <path d="M42.3377483,136 L53.6622517,136 C57.5665,136 59.4734667,136 61.4635762,136.754967 C63.76905,137.465217 65.5347833,139.23095 66.2450331,141.536424 C67,143.526217 67,145.433817 67,149.337748 L67,160.662252 C67,164.5665 67,166.473467 66.2450331,168.463576 C65.5347833,170.76905 63.76905,172.534783 61.4635762,173.245033 C59.4734667,174 57.5665,174 53.6622517,174 L42.3377483,174 C38.4335,174 36.5262167,174 34.5364238,173.245033 C32.23095,172.534783 30.4652167,170.76905 29.7549669,168.463576 C29,166.473467 29,164.5665 29,160.662252 L29,149.337748 C29,145.433817 29,143.526217 29.7549669,141.536424 C30.4652167,139.23095 32.23095,137.465217 34.5364238,136.754967 C36.5262167,136 38.4335,136 42.3377483,136 L42.3377483,136" id="Path-2" stroke="#FFFFFF" stroke-width="2" sketch:type="MSShapeGroup"></path>
                <path d="M42.3377483,191 L53.6622517,191 C57.5665,191 59.4734667,191 61.4635762,191.754967 C63.76905,192.465217 65.5347833,194.23095 66.2450331,196.536424 C67,198.526217 67,200.433817 67,204.337748 L67,215.662252 C67,219.5665 67,221.473467 66.2450331,223.463576 C65.5347833,225.76905 63.76905,227.534783 61.4635762,228.245033 C59.4734667,229 57.5665,229 53.6622517,229 L42.3377483,229 C38.4335,229 36.5262167,229 34.5364238,228.245033 C32.23095,227.534783 30.4652167,225.76905 29.7549669,223.463576 C29,221.473467 29,219.5665 29,215.662252 L29,204.337748 C29,200.433817 29,198.526217 29.7549669,196.536424 C30.4652167,194.23095 32.23095,192.465217 34.5364238,191.754967 C36.5262167,191 38.4335,191 42.3377483,191 L42.3377483,191" id="Path-2" stroke="#FFFFFF" stroke-width="2" sketch:type="MSShapeGroup"></path>
                <path d="M42.3377483,246 L53.6622517,246 C57.5665,246 59.4734667,246 61.4635762,246.754967 C63.76905,247.465217 65.5347833,249.23095 66.2450331,251.536424 C67,253.526217 67,255.433817 67,259.337748 L67,270.662252 C67,274.5665 67,276.473467 66.2450331,278.463576 C65.5347833,280.76905 63.76905,282.534783 61.4635762,283.245033 C59.4734667,284 57.5665,284 53.6622517,284 L42.3377483,284 C38.4335,284 36.5262167,284 34.5364238,283.245033 C32.23095,282.534783 30.4652167,280.76905 29.7549669,278.463576 C29,276.473467 29,274.5665 29,270.662252 L29,259.337748 C29,255.433817 29,253.526217 29.7549669,251.536424 C30.4652167,249.23095 32.23095,247.465217 34.5364238,246.754967 C36.5262167,246 38.4335,246 42.3377483,246 L42.3377483,246" id="Path-2" stroke="#FFFFFF" stroke-width="2" sketch:type="MSShapeGroup"></path>
                <path d="M92.3377483,395 L103.662252,395 C107.5665,395 109.473467,395 111.463576,395.754967 C113.76905,396.465217 115.534783,398.23095 116.245033,400.536424 C117,402.526217 117,404.433817 117,408.337748 L117,419.662252 C117,423.5665 117,425.473467 116.245033,427.463576 C115.534783,429.76905 113.76905,431.534783 111.463576,432.245033 C109.473467,433 107.5665,433 103.662252,433 L92.3377483,433 C88.4335,433 86.5262167,433 84.5364238,432.245033 C82.23095,431.534783 80.4652167,429.76905 79.7549669,427.463576 C79,425.473467 79,423.5665 79,419.662252 L79,408.337748 C79,404.433817 79,402.526217 79.7549669,400.536424 C80.4652167,398.23095 82.23095,396.465217 84.5364238,395.754967 C86.5262167,395 88.4335,395 92.3377483,395 L92.3377483,395" id="Path-3" stroke="#FFFFFF" stroke-width="2" sketch:type="MSShapeGroup"></path>
                <path d="M92.3377483,83 L103.662252,83 C107.5665,83 109.473467,83 111.463576,83.7549669 C113.76905,84.4652167 115.534783,86.23095 116.245033,88.5364238 C117,90.5262167 117,92.4338167 117,96.3377483 L117,107.662252 C117,111.5665 117,113.473467 116.245033,115.463576 C115.534783,117.76905 113.76905,119.534783 111.463576,120.245033 C109.473467,121 107.5665,121 103.662252,121 L92.3377483,121 C88.4335,121 86.5262167,121 84.5364238,120.245033 C82.23095,119.534783 80.4652167,117.76905 79.7549669,115.463576 C79,113.473467 79,111.5665 79,107.662252 L79,96.3377483 C79,92.4338167 79,90.5262167 79.7549669,88.5364238 C80.4652167,86.23095 82.23095,84.4652167 84.5364238,83.7549669 C86.5262167,83 88.4335,83 92.3377483,83 L92.3377483,83" id="Path-3" stroke="#FFFFFF" stroke-width="2" sketch:type="MSShapeGroup"></path>
                <path d="M92.3377483,136 L103.662252,136 C107.5665,136 109.473467,136 111.463576,136.754967 C113.76905,137.465217 115.534783,139.23095 116.245033,141.536424 C117,143.526217 117,145.433817 117,149.337748 L117,160.662252 C117,164.5665 117,166.473467 116.245033,168.463576 C115.534783,170.76905 113.76905,172.534783 111.463576,173.245033 C109.473467,174 107.5665,174 103.662252,174 L92.3377483,174 C88.4335,174 86.5262167,174 84.5364238,173.245033 C82.23095,172.534783 80.4652167,170.76905 79.7549669,168.463576 C79,166.473467 79,164.5665 79,160.662252 L79,149.337748 C79,145.433817 79,143.526217 79.7549669,141.536424 C80.4652167,139.23095 82.23095,137.465217 84.5364238,136.754967 C86.5262167,136 88.4335,136 92.3377483,136 L92.3377483,136" id="Path-3" stroke="#FFFFFF" stroke-width="2" sketch:type="MSShapeGroup"></path>
                <path d="M92.3377483,191 L103.662252,191 C107.5665,191 109.473467,191 111.463576,191.754967 C113.76905,192.465217 115.534783,194.23095 116.245033,196.536424 C117,198.526217 117,200.433817 117,204.337748 L117,215.662252 C117,219.5665 117,221.473467 116.245033,223.463576 C115.534783,225.76905 113.76905,227.534783 111.463576,228.245033 C109.473467,229 107.5665,229 103.662252,229 L92.3377483,229 C88.4335,229 86.5262167,229 84.5364238,228.245033 C82.23095,227.534783 80.4652167,225.76905 79.7549669,223.463576 C79,221.473467 79,219.5665 79,215.662252 L79,204.337748 C79,200.433817 79,198.526217 79.7549669,196.536424 C80.4652167,194.23095 82.23095,192.465217 84.5364238,191.754967 C86.5262167,191 88.4335,191 92.3377483,191 L92.3377483,191" id="Path-3" stroke="#FFFFFF" stroke-width="2" sketch:type="MSShapeGroup"></path>
                <path d="M92.3377483,246 L103.662252,246 C107.5665,246 109.473467,246 111.463576,246.754967 C113.76905,247.465217 115.534783,249.23095 116.245033,251.536424 C117,253.526217 117,255.433817 117,259.337748 L117,270.662252 C117,274.5665 117,276.473467 116.245033,278.463576 C115.534783,280.76905 113.76905,282.534783 111.463576,283.245033 C109.473467,284 107.5665,284 103.662252,284 L92.3377483,284 C88.4335,284 86.5262167,284 84.5364238,283.245033 C82.23095,282.534783 80.4652167,280.76905 79.7549669,278.463576 C79,276.473467 79,274.5665 79,270.662252 L79,259.337748 C79,255.433817 79,253.526217 79.7549669,251.536424 C80.4652167,249.23095 82.23095,247.465217 84.5364238,246.754967 C86.5262167,246 88.4335,246 92.3377483,246 L92.3377483,246" id="Path-3" stroke="#FFFFFF" stroke-width="2" sketch:type="MSShapeGroup"></path>
                <path d="M142.337748,395 L153.662252,395 C157.5665,395 159.473467,395 161.463576,395.754967 C163.76905,396.465217 165.534783,398.23095 166.245033,400.536424 C167,402.526217 167,404.433817 167,408.337748 L167,419.662252 C167,423.5665 167,425.473467 166.245033,427.463576 C165.534783,429.76905 163.76905,431.534783 161.463576,432.245033 C159.473467,433 157.5665,433 153.662252,433 L142.337748,433 C138.4335,433 136.526217,433 134.536424,432.245033 C132.23095,431.534783 130.465217,429.76905 129.754967,427.463576 C129,425.473467 129,423.5665 129,419.662252 L129,408.337748 C129,404.433817 129,402.526217 129.754967,400.536424 C130.465217,398.23095 132.23095,396.465217 134.536424,395.754967 C136.526217,395 138.4335,395 142.337748,395 L142.337748,395" id="Path-4" stroke="#FFFFFF" stroke-width="2" sketch:type="MSShapeGroup"></path>
                <path d="M142.337748,83 L153.662252,83 C157.5665,83 159.473467,83 161.463576,83.7549669 C163.76905,84.4652167 165.534783,86.23095 166.245033,88.5364238 C167,90.5262167 167,92.4338167 167,96.3377483 L167,107.662252 C167,111.5665 167,113.473467 166.245033,115.463576 C165.534783,117.76905 163.76905,119.534783 161.463576,120.245033 C159.473467,121 157.5665,121 153.662252,121 L142.337748,121 C138.4335,121 136.526217,121 134.536424,120.245033 C132.23095,119.534783 130.465217,117.76905 129.754967,115.463576 C129,113.473467 129,111.5665 129,107.662252 L129,96.3377483 C129,92.4338167 129,90.5262167 129.754967,88.5364238 C130.465217,86.23095 132.23095,84.4652167 134.536424,83.7549669 C136.526217,83 138.4335,83 142.337748,83 L142.337748,83" id="Path-4" stroke="#FFFFFF" stroke-width="2" sketch:type="MSShapeGroup"></path>
                <path d="M142.337748,136 L153.662252,136 C157.5665,136 159.473467,136 161.463576,136.754967 C163.76905,137.465217 165.534783,139.23095 166.245033,141.536424 C167,143.526217 167,145.433817 167,149.337748 L167,160.662252 C167,164.5665 167,166.473467 166.245033,168.463576 C165.534783,170.76905 163.76905,172.534783 161.463576,173.245033 C159.473467,174 157.5665,174 153.662252,174 L142.337748,174 C138.4335,174 136.526217,174 134.536424,173.245033 C132.23095,172.534783 130.465217,170.76905 129.754967,168.463576 C129,166.473467 129,164.5665 129,160.662252 L129,149.337748 C129,145.433817 129,143.526217 129.754967,141.536424 C130.465217,139.23095 132.23095,137.465217 134.536424,136.754967 C136.526217,136 138.4335,136 142.337748,136 L142.337748,136" id="Path-4" stroke="#FFFFFF" stroke-width="2" sketch:type="MSShapeGroup"></path>
                <path d="M142.337748,191 L153.662252,191 C157.5665,191 159.473467,191 161.463576,191.754967 C163.76905,192.465217 165.534783,194.23095 166.245033,196.536424 C167,198.526217 167,200.433817 167,204.337748 L167,215.662252 C167,219.5665 167,221.473467 166.245033,223.463576 C165.534783,225.76905 163.76905,227.534783 161.463576,228.245033 C159.473467,229 157.5665,229 153.662252,229 L142.337748,229 C138.4335,229 136.526217,229 134.536424,228.245033 C132.23095,227.534783 130.465217,225.76905 129.754967,223.463576 C129,221.473467 129,219.5665 129,215.662252 L129,204.337748 C129,200.433817 129,198.526217 129.754967,196.536424 C130.465217,194.23095 132.23095,192.465217 134.536424,191.754967 C136.526217,191 138.4335,191 142.337748,191 L142.337748,191" id="Path-4" stroke="#FFFFFF" stroke-width="2" sketch:type="MSShapeGroup"></path>
                <path d="M142.337748,246 L153.662252,246 C157.5665,246 159.473467,246 161.463576,246.754967 C163.76905,247.465217 165.534783,249.23095 166.245033,251.536424 C167,253.526217 167,255.433817 167,259.337748 L167,270.662252 C167,274.5665 167,276.473467 166.245033,278.463576 C165.534783,280.76905 163.76905,282.534783 161.463576,283.245033 C159.473467,284 157.5665,284 153.662252,284 L142.337748,284 C138.4335,284 136.526217,284 134.536424,283.245033 C132.23095,282.534783 130.465217,280.76905 129.754967,278.463576 C129,276.473467 129,274.5665 129,270.662252 L129,259.337748 C129,255.433817 129,253.526217 129.754967,251.536424 C130.465217,249.23095 132.23095,247.465217 134.536424,246.754967 C136.526217,246 138.4335,246 142.337748,246 Z M160,260 C159.691873,261.652789 158.213411,262.274281 157,263 C157.771207,262.836632 158.964626,262.467959 160,262 C159.468313,262.301906 159.465512,262.318429 160,262 C159.128039,264.256938 157.087109,265.692237 156,266 C155.833639,265.822486 156.631553,265.83216 157,266 C157.157482,265.964204 157.373585,265.992428 158,266 C157.025788,267.169689 154.713525,267.935725 154,268 L156,277 L148,272 L140,277 L142,268 C141.271074,267.925054 138.977731,267.158985 138,266 C138.628143,265.979962 138.844343,265.951771 139,266 C139.370533,265.81986 140.234717,265.811183 140,266 C138.980531,265.681067 136.872647,264.246633 136,262 C136.534913,262.310517 136.532112,262.293994 136,262 C137.03606,262.459848 138.295944,262.828986 139,263 C137.853513,262.267333 136.308356,261.646672 136,260 C135.944147,259.558931 135.992213,258.842329 136,258 C138.145363,260.049509 141.478612,260.161208 144,260 L148,252 L152,260 C154.536988,260.164998 157.857537,260.052136 160,258 C160.007756,258.844988 160.055823,259.562488 160,260 Z" id="Path-4" fill="#FFFFFF" sketch:type="MSShapeGroup"></path>
                <path d="M192.337748,395 L203.662252,395 C207.5665,395 209.473467,395 211.463576,395.754967 C213.76905,396.465217 215.534783,398.23095 216.245033,400.536424 C217,402.526217 217,404.433817 217,408.337748 L217,419.662252 C217,423.5665 217,425.473467 216.245033,427.463576 C215.534783,429.76905 213.76905,431.534783 211.463576,432.245033 C209.473467,433 207.5665,433 203.662252,433 L192.337748,433 C188.4335,433 186.526217,433 184.536424,432.245033 C182.23095,431.534783 180.465217,429.76905 179.754967,427.463576 C179,425.473467 179,423.5665 179,419.662252 L179,408.337748 C179,404.433817 179,402.526217 179.754967,400.536424 C180.465217,398.23095 182.23095,396.465217 184.536424,395.754967 C186.526217,395 188.4335,395 192.337748,395 L192.337748,395" id="Path-5" stroke="#FFFFFF" stroke-width="2" sketch:type="MSShapeGroup"></path>
                <path d="M192.337748,83 L203.662252,83 C207.5665,83 209.473467,83 211.463576,83.7549669 C213.76905,84.4652167 215.534783,86.23095 216.245033,88.5364238 C217,90.5262167 217,92.4338167 217,96.3377483 L217,107.662252 C217,111.5665 217,113.473467 216.245033,115.463576 C215.534783,117.76905 213.76905,119.534783 211.463576,120.245033 C209.473467,121 207.5665,121 203.662252,121 L192.337748,121 C188.4335,121 186.526217,121 184.536424,120.245033 C182.23095,119.534783 180.465217,117.76905 179.754967,115.463576 C179,113.473467 179,111.5665 179,107.662252 L179,96.3377483 C179,92.4338167 179,90.5262167 179.754967,88.5364238 C180.465217,86.23095 182.23095,84.4652167 184.536424,83.7549669 C186.526217,83 188.4335,83 192.337748,83 L192.337748,83" id="Path-5" stroke="#FFFFFF" stroke-width="2" sketch:type="MSShapeGroup"></path>
                <path d="M192.337748,136 L203.662252,136 C207.5665,136 209.473467,136 211.463576,136.754967 C213.76905,137.465217 215.534783,139.23095 216.245033,141.536424 C217,143.526217 217,145.433817 217,149.337748 L217,160.662252 C217,164.5665 217,166.473467 216.245033,168.463576 C215.534783,170.76905 213.76905,172.534783 211.463576,173.245033 C209.473467,174 207.5665,174 203.662252,174 L192.337748,174 C188.4335,174 186.526217,174 184.536424,173.245033 C182.23095,172.534783 180.465217,170.76905 179.754967,168.463576 C179,166.473467 179,164.5665 179,160.662252 L179,149.337748 C179,145.433817 179,143.526217 179.754967,141.536424 C180.465217,139.23095 182.23095,137.465217 184.536424,136.754967 C186.526217,136 188.4335,136 192.337748,136 L192.337748,136" id="Path-5" stroke="#FFFFFF" stroke-width="2" sketch:type="MSShapeGroup"></path>
                <path d="M192.337748,191 L203.662252,191 C207.5665,191 209.473467,191 211.463576,191.754967 C213.76905,192.465217 215.534783,194.23095 216.245033,196.536424 C217,198.526217 217,200.433817 217,204.337748 L217,215.662252 C217,219.5665 217,221.473467 216.245033,223.463576 C215.534783,225.76905 213.76905,227.534783 211.463576,228.245033 C209.473467,229 207.5665,229 203.662252,229 L192.337748,229 C188.4335,229 186.526217,229 184.536424,228.245033 C182.23095,227.534783 180.465217,225.76905 179.754967,223.463576 C179,221.473467 179,219.5665 179,215.662252 L179,204.337748 C179,200.433817 179,198.526217 179.754967,196.536424 C180.465217,194.23095 182.23095,192.465217 184.536424,191.754967 C186.526217,191 188.4335,191 192.337748,191 L192.337748,191" id="Path-5" stroke="#FFFFFF" stroke-width="2" sketch:type="MSShapeGroup"></path>
            </g>
        </g>
    </g>
</svg>