<?xml version="1.0" encoding="UTF-8" standalone="no"?>
<svg width="300px" height="453px" viewBox="0 0 300 453" version="1.1" xmlns="http://www.w3.org/2000/svg" xmlns:xlink="http://www.w3.org/1999/xlink" xmlns:sketch="http://www.bohemiancoding.com/sketch/ns">
    <!-- Generator: Sketch 3.3.2 (12043) - http://www.bohemiancoding.com/sketch -->
    <title>step03</title>
    <desc>Created with Sketch.</desc>
    <defs></defs>
    <g id="Walkthrough" stroke="none" stroke-width="1" fill="none" fill-rule="evenodd" sketch:type="MSPage">
        <g id="Step-3" sketch:type="MSArtboardGroup" transform="translate(-57.000000, -154.000000)">
            <g id="step03" sketch:type="MSLayerGroup" transform="translate(57.000000, 156.000000)">
                <path d="M164.9834,89.0333333 C154.51952,85.2908333 151.17548,82.1316667 151.17548,75.3708333 C151.17548,71.3116667 154.37,72.6375 155.7728,65.2041667 C156.35492,62.1208333 159.17732,65.1541667 159.7166,58.115 C159.7166,55.31 158.17604,54.6125 158.17604,54.6125 C158.17604,54.6125 158.95892,50.4608333 159.26552,47.2658333 C159.64604,43.285 156.92276,33 142.4,33 C127.87724,33 125.15396,43.285 125.53448,47.2658333 C125.84108,50.4608333 126.62396,54.6125 126.62396,54.6125 C126.62396,54.6125 125.0834,55.31 125.0834,58.115 C125.62352,65.1541667 128.44508,62.1208333 129.02552,65.2041667 C130.43,72.6366667 133.62452,71.3116667 133.62452,75.3708333 C133.62452,82.1316667 130.28132,85.2908333 119.8166,89.0333333 C118.5566,89.4833333 115.55276,90.1841667 113,91.2775 L113,108 L180.2,108 L180.2,99.2283333 C180.2,96.6175 175.48004,92.7883333 164.9834,89.0333333 L164.9834,89.0333333 Z M184.4,66.3333333 L184.4,53.8333333 L176,53.8333333 L176,66.3333333 L163.4,66.3333333 L163.4,74.6666667 L176,74.6666667 L176,87.1666667 L184.4,87.1666667 L184.4,74.6666667 L197,74.6666667 L197,66.3333333 L184.4,66.3333333 L184.4,66.3333333 Z" id="nav-adduser-2" fill="#FFFFFF" sketch:type="MSShapeGroup"></path>
                <g id="Group" transform="translate(8.000000, 211.000000)" fill="#FFFFFF" sketch:type="MSShapeGroup">
                    <path d="M274.3278,31.1777778 C270.83984,29.9302778 269.72516,28.8772222 269.72516,26.6236111 C269.72516,25.2705556 270.79,25.7125 271.2576,23.2347222 C271.45164,22.2069444 272.39244,23.2180556 272.5722,20.8716667 C272.5722,19.9366667 272.05868,19.7041667 272.05868,19.7041667 C272.05868,19.7041667 272.31964,18.3202778 272.42184,17.2552778 C272.54868,15.9283333 271.64092,12.5 266.8,12.5 C261.95908,12.5 261.05132,15.9283333 261.17816,17.2552778 C261.28036,18.3202778 261.54132,19.7041667 261.54132,19.7041667 C261.54132,19.7041667 261.0278,19.9366667 261.0278,20.8716667 C261.20784,23.2180556 262.14836,22.2069444 262.34184,23.2347222 C262.81,25.7122222 263.87484,25.2705556 263.87484,26.6236111 C263.87484,28.8772222 262.76044,29.9302778 259.2722,31.1777778 C258.8522,31.3277778 257.85092,31.5613889 257,31.9258333 L257,37.5 L279.4,37.5 L279.4,34.5761111 C279.4,33.7058333 277.82668,32.4294444 274.3278,31.1777778 L274.3278,31.1777778 Z M275,23.6111111 L275,26.3888888 L284,26.3888888 L284,23.6111111 L275,23.6111111 Z" id="nav-adduser"></path>
                    <rect id="Rectangle-33" x="0" y="0" width="50" height="50" rx="8"></rect>
                    <rect id="Rectangle-34" x="60" y="9" width="100" height="14"></rect>
                    <rect id="Rectangle-35" x="60" y="29" width="80" height="11"></rect>
                </g>
                <rect id="Rectangle-36" opacity="0.5" fill="#FFFFFF" sketch:type="MSShapeGroup" x="0" y="194" width="300" height="1"></rect>
                <rect id="Rectangle-37" opacity="0.5" fill="#FFFFFF" sketch:type="MSShapeGroup" x="0" y="278" width="300" height="1"></rect>
                <g id="Group-2" transform="translate(8.000000, 297.000000)" fill="#FFFFFF" sketch:type="MSShapeGroup">
                    <path d="M274.3278,31.1777778 C270.83984,29.9302778 269.72516,28.8772222 269.72516,26.6236111 C269.72516,25.2705556 270.79,25.7125 271.2576,23.2347222 C271.45164,22.2069444 272.39244,23.2180556 272.5722,20.8716667 C272.5722,19.9366667 272.05868,19.7041667 272.05868,19.7041667 C272.05868,19.7041667 272.31964,18.3202778 272.42184,17.2552778 C272.54868,15.9283333 271.64092,12.5 266.8,12.5 C261.95908,12.5 261.05132,15.9283333 261.17816,17.2552778 C261.28036,18.3202778 261.54132,19.7041667 261.54132,19.7041667 C261.54132,19.7041667 261.0278,19.9366667 261.0278,20.8716667 C261.20784,23.2180556 262.14836,22.2069444 262.34184,23.2347222 C262.81,25.7122222 263.87484,25.2705556 263.87484,26.6236111 C263.87484,28.8772222 262.76044,29.9302778 259.2722,31.1777778 C258.8522,31.3277778 257.85092,31.5613889 257,31.9258333 L257,37.5 L279.4,37.5 L279.4,34.5761111 C279.4,33.7058333 277.82668,32.4294444 274.3278,31.1777778 L274.3278,31.1777778 Z M275,23.6111111 L275,26.3888888 L284,26.3888888 L284,23.6111111 L275,23.6111111 Z" id="nav-adduser"></path>
                    <rect id="Rectangle-33" x="0" y="0" width="50" height="50" rx="8"></rect>
                    <rect id="Rectangle-34" x="60" y="9" width="100" height="14"></rect>
                    <rect id="Rectangle-35" x="60" y="29" width="80" height="11"></rect>
                </g>
                <g id="Group-2" transform="translate(8.000000, 383.000000)" fill="#FFFFFF" sketch:type="MSShapeGroup">
                    <path d="M274.3278,31.1777778 C270.83984,29.9302778 269.72516,28.8772222 269.72516,26.6236111 C269.72516,25.2705556 270.79,25.7125 271.2576,23.2347222 C271.45164,22.2069444 272.39244,23.2180556 272.5722,20.8716667 C272.5722,19.9366667 272.05868,19.7041667 272.05868,19.7041667 C272.05868,19.7041667 272.31964,18.3202778 272.42184,17.2552778 C272.54868,15.9283333 271.64092,12.5 266.8,12.5 C261.95908,12.5 261.05132,15.9283333 261.17816,17.2552778 C261.28036,18.3202778 261.54132,19.7041667 261.54132,19.7041667 C261.54132,19.7041667 261.0278,19.9366667 261.0278,20.8716667 C261.20784,23.2180556 262.14836,22.2069444 262.34184,23.2347222 C262.81,25.7122222 263.87484,25.2705556 263.87484,26.6236111 C263.87484,28.8772222 262.76044,29.9302778 259.2722,31.1777778 C258.8522,31.3277778 257.85092,31.5613889 257,31.9258333 L257,37.5 L279.4,37.5 L279.4,34.5761111 C279.4,33.7058333 277.82668,32.4294444 274.3278,31.1777778 L274.3278,31.1777778 Z M275,23.6111111 L275,26.3888888 L284,26.3888888 L284,23.6111111 L275,23.6111111 Z" id="nav-adduser"></path>
                    <rect id="Rectangle-33" x="0" y="0" width="50" height="50" rx="8"></rect>
                    <rect id="Rectangle-34" x="60" y="9" width="100" height="14"></rect>
                    <rect id="Rectangle-35" x="60" y="29" width="80" height="11"></rect>
                </g>
                <rect id="Rectangle-38" opacity="0.5" fill="#FFFFFF" sketch:type="MSShapeGroup" x="0" y="364" width="300" height="1"></rect>
                <rect id="Rectangle-38" opacity="0.5" fill="#FFFFFF" sketch:type="MSShapeGroup" x="0" y="450" width="300" height="1"></rect>
                <circle id="Oval-26" stroke="#FFFFFF" stroke-width="4" stroke-dasharray="2,4" sketch:type="MSShapeGroup" cx="150.5" cy="72.5" r="72.5"></circle>
                <path d="M208.5,124.5 C208.5,124.5 249,165.109238 249,260.109238 C249,355.109238 201.5,395.718477 201.5,395.718477" id="Line" stroke="#FFFFFF" stroke-width="4" stroke-dasharray="2,4" sketch:type="MSShapeGroup"></path>
                <polygon id="Triangle-1" stroke="#FFFFFF" stroke-width="2" sketch:type="MSShapeGroup" transform="translate(194.000000, 404.000000) rotate(-135.000000) translate(-194.000000, -404.000000) " points="194 395 204 413 184 413 "></polygon>
            </g>
        </g>
    </g>
</svg>