<?xml version="1.0" encoding="UTF-8" standalone="no"?>
<svg width="250px" height="60px" viewBox="0 0 250 60" version="1.1" xmlns="http://www.w3.org/2000/svg" xmlns:xlink="http://www.w3.org/1999/xlink" xmlns:sketch="http://www.bohemiancoding.com/sketch/ns">
    <!-- Generator: Sketch 3.3.2 (12043) - http://www.bohemiancoding.com/sketch -->
    <title>sign in button</title>
    <desc>Created with Sketch.</desc>
    <defs></defs>
    <g id="Walkthrough" stroke="none" stroke-width="1" fill="none" fill-rule="evenodd" sketch:type="MSPage">
        <g id="Step-5" sketch:type="MSArtboardGroup" transform="translate(-82.000000, -338.000000)" fill="#FFFFFF">
            <path d="M87.994437,338 C84.6838008,338 82,340.694637 82,344.000038 L82,391.999962 C82,395.313691 84.6802809,398 87.994437,398 L326.005563,398 C329.316199,398 332,395.305363 332,391.999962 L332,344.000038 C332,340.686309 329.319719,338 326.005563,338 L87.994437,338 Z M115.625458,377.17486 C112.715891,377.17486 110.019834,376.297253 107.75,374.809996 C108.151258,374.842042 108.559558,374.867089 108.940476,374.90459 C111.376504,374.867089 113.588088,374.019539 115.350733,372.63432 C113.099043,372.554876 111.204863,371.022159 110.588828,368.945131 C110.86533,368.977811 111.186666,369.010987 111.504579,369.039725 C111.984976,369.010987 112.438083,368.946242 112.878205,368.850536 C110.522047,368.338108 108.754152,366.195367 108.757326,363.647833 C108.754152,363.604417 108.754152,363.582205 108.757326,363.553239 C109.446112,363.957161 110.236923,364.195632 111.046703,364.215401 C109.701516,363.272467 108.795942,361.649768 108.757326,359.769455 C108.795942,358.838968 109.048877,357.928279 109.489927,357.120806 C112.02009,360.352686 115.799398,362.463291 120.021062,362.701887 C119.974752,362.296371 119.929304,361.891736 119.929487,361.472158 C119.929304,358.548511 122.22584,356.17486 125.057692,356.17486 C126.533697,356.17486 127.866683,356.818723 128.812271,357.877563 C129.970637,357.611263 131.068336,357.170049 132.017399,356.553239 C131.676351,357.800489 130.863135,358.83944 129.819597,359.485671 C130.841646,359.367422 131.83016,359.082448 132.75,358.63432 C132.062338,359.723947 131.192701,360.657699 130.185897,361.377563 C130.200529,361.632471 130.205467,361.861112 130.185897,362.13432 C130.205467,369.096621 125.046536,377.17486 115.625458,377.17486 Z M153.210093,373.000953 C155.653907,373.000953 157.412047,371.629605 157.412047,369.519837 L157.412047,369.484674 C157.412047,367.603465 156.146186,366.601326 153.403488,366.003558 C150.695953,365.423372 150.063023,364.77286 150.063023,363.612488 L150.063023,363.577326 C150.063023,362.469698 151.082744,361.590628 152.682651,361.590628 C153.948512,361.590628 155.091302,361.995 156.234093,362.926814 L157.042837,361.854349 C155.794558,360.852209 154.511116,360.342349 152.717814,360.342349 C150.379488,360.342349 148.674093,361.766442 148.674093,363.700395 L148.674093,363.735558 C148.674093,365.757419 149.975116,366.671651 152.805721,367.287 C155.390186,367.832023 156.005535,368.482535 156.005535,369.625326 L156.005535,369.660488 C156.005535,370.873605 154.915488,371.752674 153.262837,371.752674 C151.557442,371.752674 150.326744,371.172488 149.043302,370.012116 L148.181814,371.031837 C149.658651,372.350442 151.258558,373.000953 153.210093,373.000953 Z M159.549256,361.74886 L161.096419,361.74886 L161.096419,360.254442 L159.549256,360.254442 L159.549256,361.74886 Z M159.637163,372.82514 L160.99093,372.82514 L160.99093,363.735558 L159.637163,363.735558 L159.637163,372.82514 Z M167.66414,375.673326 C169.105814,375.673326 170.31893,375.268953 171.127674,374.460209 C171.866093,373.721791 172.288047,372.649326 172.288047,371.242814 L172.288047,363.735558 L170.934279,363.735558 L170.934279,365.370628 C170.19586,364.38607 169.088233,363.542163 167.382837,363.542163 C165.220326,363.542163 163.110558,365.177233 163.110558,367.832023 L163.110558,367.867186 C163.110558,370.486814 165.202744,372.121884 167.382837,372.121884 C169.05307,372.121884 170.160698,371.260395 170.95186,370.205512 L170.95186,371.277977 C170.95186,373.405326 169.650837,374.512953 167.646558,374.512953 C166.345535,374.512953 165.185163,374.108581 164.14786,373.352581 L163.532512,374.407465 C164.745628,375.251372 166.15214,375.673326 167.66414,375.673326 L167.66414,375.673326 Z M167.646558,370.926349 C165.958744,370.926349 164.499488,369.660488 164.499488,367.832023 L164.499488,367.79686 C164.499488,365.933233 165.923581,364.737698 167.646558,364.737698 C169.369535,364.737698 170.987023,365.950814 170.987023,367.814442 L170.987023,367.849605 C170.987023,369.67807 169.369535,370.926349 167.646558,370.926349 L167.646558,370.926349 Z M174.812047,372.82514 L176.165814,372.82514 L176.165814,367.621047 C176.165814,365.915651 177.326186,364.77286 178.89093,364.77286 C180.490837,364.77286 181.40507,365.827744 181.40507,367.515558 L181.40507,372.82514 L182.758837,372.82514 L182.758837,367.181512 C182.758837,365.019 181.475395,363.542163 179.277721,363.542163 C177.712977,363.542163 176.763581,364.333326 176.165814,365.317884 L176.165814,363.735558 L174.812047,363.735558 L174.812047,372.82514 Z M189.951767,361.74886 L191.49893,361.74886 L191.49893,360.254442 L189.951767,360.254442 L189.951767,361.74886 Z M190.039674,372.82514 L191.393442,372.82514 L191.393442,363.735558 L190.039674,363.735558 L190.039674,372.82514 Z M194.040512,372.82514 L195.394279,372.82514 L195.394279,367.621047 C195.394279,365.915651 196.554651,364.77286 198.119395,364.77286 C199.719302,364.77286 200.633535,365.827744 200.633535,367.515558 L200.633535,372.82514 L201.987302,372.82514 L201.987302,367.181512 C201.987302,365.019 200.70386,363.542163 198.506186,363.542163 C196.941442,363.542163 195.992047,364.333326 195.394279,365.317884 L195.394279,363.735558 L194.040512,363.735558 L194.040512,372.82514 Z M211.553721,372.895465 L212.749256,372.895465 L215.210651,365.722256 L217.654465,372.895465 L218.832419,372.895465 L222.032233,363.735558 L220.625721,363.735558 L218.234651,371.031837 L215.773256,363.700395 L214.648047,363.700395 L212.204233,371.031837 L209.813163,363.735558 L208.371488,363.735558 L211.553721,372.895465 Z M223.817814,361.74886 L225.364977,361.74886 L225.364977,360.254442 L223.817814,360.254442 L223.817814,361.74886 Z M223.905721,372.82514 L225.259488,372.82514 L225.259488,363.735558 L223.905721,363.735558 L223.905721,372.82514 Z M230.94814,372.983372 C231.598651,372.983372 232.108512,372.842721 232.583209,372.596581 L232.583209,371.436209 C232.108512,371.664767 231.721721,371.752674 231.264605,371.752674 C230.350372,371.752674 229.735023,371.348302 229.735023,370.240674 L229.735023,364.931093 L232.618372,364.931093 L232.618372,363.735558 L229.735023,363.735558 L229.735023,360.99286 L228.381256,360.99286 L228.381256,363.735558 L227.115395,363.735558 L227.115395,364.931093 L228.381256,364.931093 L228.381256,370.416488 C228.381256,372.262535 229.488884,372.983372 230.94814,372.983372 L230.94814,372.983372 Z M234.509442,372.82514 L235.863209,372.82514 L235.863209,367.621047 C235.863209,365.915651 237.023581,364.77286 238.588326,364.77286 C240.188233,364.77286 241.102465,365.827744 241.102465,367.515558 L241.102465,372.82514 L242.456233,372.82514 L242.456233,367.181512 C242.456233,365.019 241.172791,363.542163 238.975116,363.542163 C237.410372,363.542163 236.460977,364.333326 235.863209,365.317884 L235.863209,359.990721 L234.509442,359.990721 L234.509442,372.82514 Z M253.095116,372.82514 L254.501628,372.82514 L254.501628,361.801605 L258.633256,361.801605 L258.633256,360.518163 L248.963488,360.518163 L248.963488,361.801605 L253.095116,361.801605 L253.095116,372.82514 Z M261.438558,372.895465 L262.634093,372.895465 L265.095488,365.722256 L267.539302,372.895465 L268.717256,372.895465 L271.91707,363.735558 L270.510558,363.735558 L268.119488,371.031837 L265.658093,363.700395 L264.532884,363.700395 L262.08907,371.031837 L259.698,363.735558 L258.256326,363.735558 L261.438558,372.895465 Z M273.702651,361.74886 L275.249814,361.74886 L275.249814,360.254442 L273.702651,360.254442 L273.702651,361.74886 Z M273.790558,372.82514 L275.144326,372.82514 L275.144326,363.735558 L273.790558,363.735558 L273.790558,372.82514 Z M280.832977,372.983372 C281.483488,372.983372 281.993349,372.842721 282.468047,372.596581 L282.468047,371.436209 C281.993349,371.664767 281.606558,371.752674 281.149442,371.752674 C280.235209,371.752674 279.61986,371.348302 279.61986,370.240674 L279.61986,364.931093 L282.503209,364.931093 L282.503209,363.735558 L279.61986,363.735558 L279.61986,360.99286 L278.266093,360.99286 L278.266093,363.735558 L277.000233,363.735558 L277.000233,364.931093 L278.266093,364.931093 L278.266093,370.416488 C278.266093,372.262535 279.373721,372.983372 280.832977,372.983372 L280.832977,372.983372 Z M287.43586,372.983372 C288.086372,372.983372 288.596233,372.842721 289.07093,372.596581 L289.07093,371.436209 C288.596233,371.664767 288.209442,371.752674 287.752326,371.752674 C286.838093,371.752674 286.222744,371.348302 286.222744,370.240674 L286.222744,364.931093 L289.106093,364.931093 L289.106093,363.735558 L286.222744,363.735558 L286.222744,360.99286 L284.868977,360.99286 L284.868977,363.735558 L283.603116,363.735558 L283.603116,364.931093 L284.868977,364.931093 L284.868977,370.416488 C284.868977,372.262535 285.976605,372.983372 287.43586,372.983372 L287.43586,372.983372 Z M294.706837,373.036116 C296.429814,373.036116 297.537442,372.350442 298.451674,371.330721 L297.607767,370.574721 C296.869349,371.348302 295.990279,371.858163 294.742,371.858163 C293.124512,371.858163 291.735581,370.750535 291.542186,368.781419 L298.750558,368.781419 C298.76814,368.623186 298.76814,368.517698 298.76814,368.341884 C298.76814,365.687093 297.220977,363.542163 294.531023,363.542163 C292.016884,363.542163 290.170837,365.65193 290.170837,368.271558 L290.170837,368.306721 C290.170837,371.119744 292.210279,373.036116 294.706837,373.036116 L294.706837,373.036116 Z M291.542186,367.779279 C291.718,366.003558 292.913535,364.684953 294.49586,364.684953 C296.306744,364.684953 297.25614,366.126628 297.396791,367.779279 L291.542186,367.779279 Z M300.641628,372.82514 L301.995395,372.82514 L301.995395,369.203372 C301.995395,366.460674 303.612884,365.036581 305.599581,365.036581 L305.70507,365.036581 L305.70507,363.577326 C303.982093,363.507 302.663488,364.597047 301.995395,366.109047 L301.995395,363.735558 L300.641628,363.735558 L300.641628,372.82514 Z" id="sign-in-button" sketch:type="MSShapeGroup"></path>
        </g>
    </g>
</svg>